<?xml version="1.0" encoding="UTF-8" standalone="no"?>
<svg xmlns="http://www.w3.org/2000/svg" width="700" height="732" viewBox="0 0 700 732" role="img" aria-label="Lawsuit Intelligencer LI logo">
  <path d="M 431 173 L 428 177 L 428 183 L 431 187 L 433 188 L 441 188 L 442 189 L 449 189 L 450 190 L 454 190 L 455 191 L 458 191 L 459 192 L 461 192 L 462 193 L 464 193 L 468 195 L 470 197 L 471 197 L 478 204 L 478 205 L 480 207 L 482 211 L 482 213 L 484 217 L 484 221 L 485 222 L 485 230 L 486 231 L 486 622 L 485 623 L 485 631 L 484 632 L 484 636 L 481 642 L 481 644 L 479 646 L 477 650 L 473 654 L 472 654 L 469 657 L 463 660 L 461 660 L 460 661 L 457 661 L 456 662 L 453 662 L 452 663 L 446 663 L 445 664 L 436 664 L 435 665 L 431 665 L 428 669 L 428 675 L 429 677 L 432 679 L 614 679 L 618 676 L 618 674 L 619 673 L 619 670 L 617 666 L 613 664 L 604 664 L 603 663 L 597 663 L 596 662 L 592 662 L 588 660 L 582 659 L 573 654 L 567 648 L 563 641 L 563 639 L 561 635 L 561 632 L 560 631 L 560 625 L 559 624 L 559 233 L 560 232 L 560 225 L 561 224 L 561 219 L 562 218 L 563 212 L 566 206 L 572 199 L 573 199 L 576 196 L 580 194 L 582 194 L 583 193 L 585 193 L 589 191 L 597 190 L 598 189 L 613 188 L 618 184 L 619 178 L 617 174 L 613 172 L 434 172 L 433 173 Z M 683 57 L 682 58 L 680 58 L 675 63 L 675 65 L 674 66 L 674 718 L 675 719 L 676 723 L 678 725 L 682 726 L 683 727 L 687 727 L 691 725 L 695 720 L 695 64 L 694 63 L 694 61 L 692 59 L 688 57 Z M 9 5 L 5 9 L 5 12 L 4 14 L 5 15 L 5 18 L 7 20 L 7 21 L 8 21 L 10 23 L 14 23 L 15 24 L 24 24 L 25 25 L 32 25 L 33 26 L 39 26 L 40 27 L 44 27 L 45 28 L 48 28 L 49 29 L 57 31 L 61 33 L 63 35 L 66 36 L 75 45 L 76 48 L 78 50 L 80 54 L 80 56 L 82 59 L 82 61 L 83 62 L 83 66 L 84 67 L 84 73 L 85 74 L 85 602 L 84 603 L 84 611 L 83 612 L 83 617 L 82 618 L 82 621 L 81 622 L 80 627 L 76 635 L 66 646 L 65 646 L 60 650 L 56 652 L 54 652 L 51 654 L 49 654 L 48 655 L 44 655 L 43 656 L 35 657 L 34 658 L 21 659 L 20 660 L 11 660 L 9 661 L 5 666 L 5 668 L 4 669 L 5 671 L 5 674 L 9 678 L 32 678 L 33 679 L 47 679 L 48 678 L 55 678 L 56 679 L 58 679 L 59 678 L 63 678 L 64 679 L 66 678 L 80 678 L 81 679 L 99 679 L 100 678 L 124 678 L 125 679 L 146 679 L 147 678 L 164 678 L 165 679 L 189 679 L 190 678 L 211 678 L 212 679 L 237 679 L 238 678 L 259 678 L 260 679 L 273 679 L 274 678 L 303 678 L 304 679 L 318 679 L 319 678 L 333 678 L 334 679 L 339 679 L 340 678 L 349 678 L 350 679 L 365 679 L 366 678 L 394 678 L 395 679 L 404 679 L 405 678 L 412 678 L 414 677 L 418 671 L 418 666 L 419 665 L 419 660 L 420 659 L 420 653 L 421 652 L 421 646 L 422 645 L 423 634 L 424 633 L 424 629 L 425 628 L 425 623 L 426 622 L 426 617 L 427 616 L 427 611 L 428 610 L 428 604 L 429 603 L 429 598 L 430 597 L 430 591 L 431 590 L 431 585 L 432 584 L 432 578 L 433 577 L 433 572 L 434 571 L 434 566 L 435 565 L 435 560 L 436 559 L 436 554 L 437 553 L 437 547 L 438 546 L 438 541 L 439 540 L 439 535 L 440 534 L 440 528 L 436 523 L 433 523 L 432 522 L 431 523 L 428 523 L 426 525 L 425 525 L 425 526 L 422 530 L 422 532 L 420 535 L 420 537 L 415 546 L 415 548 L 404 570 L 402 572 L 401 575 L 399 577 L 398 580 L 396 582 L 392 589 L 388 593 L 388 594 L 384 598 L 384 599 L 365 618 L 364 618 L 357 624 L 351 627 L 349 629 L 341 633 L 339 633 L 334 636 L 332 636 L 331 637 L 329 637 L 325 639 L 322 639 L 318 641 L 314 641 L 313 642 L 309 642 L 308 643 L 302 643 L 301 644 L 293 644 L 292 645 L 246 645 L 245 644 L 237 644 L 236 643 L 231 643 L 230 642 L 226 642 L 225 641 L 222 641 L 219 639 L 214 638 L 208 635 L 205 632 L 204 632 L 197 625 L 197 624 L 193 619 L 193 617 L 191 614 L 191 611 L 189 607 L 189 603 L 188 602 L 188 594 L 187 593 L 187 82 L 188 81 L 188 72 L 189 71 L 190 62 L 191 61 L 192 56 L 196 48 L 198 46 L 198 45 L 206 37 L 212 34 L 214 32 L 216 32 L 219 30 L 221 30 L 225 28 L 228 28 L 229 27 L 232 27 L 233 26 L 238 26 L 239 25 L 256 24 L 257 23 L 261 23 L 262 22 L 264 22 L 267 19 L 267 17 L 268 16 L 268 10 L 266 6 L 262 4 L 12 4 L 11 5 Z" fill="#000000" fill-rule="evenodd"/>
</svg>
